<mxfile host="65bd71144e">
    <diagram id="kUOsfqf2_otxLyGDg3ou" name="페이지-1">
        <mxGraphModel dx="638" dy="469" grid="1" gridSize="10" guides="1" tooltips="1" connect="1" arrows="1" fold="1" page="1" pageScale="1" pageWidth="1169" pageHeight="827" math="0" shadow="0">
            <root>
                <mxCell id="0"/>
                <mxCell id="1" parent="0"/>
                <mxCell id="45" value="" style="rounded=1;whiteSpace=wrap;html=1;fontColor=#E6E6E6;fillColor=#1A1A1A;arcSize=2;fillStyle=solid;strokeColor=#E6E6E6;" vertex="1" parent="1">
                    <mxGeometry x="260" y="120" width="670" height="400" as="geometry"/>
                </mxCell>
                <mxCell id="17" style="edgeStyle=none;html=1;entryX=0.5;entryY=0;entryDx=0;entryDy=0;fontColor=#E6E6E6;strokeColor=#E6E6E6;" edge="1" parent="1" source="15" target="16">
                    <mxGeometry relative="1" as="geometry"/>
                </mxCell>
                <mxCell id="15" value="게임 시작" style="rounded=1;whiteSpace=wrap;html=1;arcSize=50;fontColor=#E6E6E6;fillColor=none;strokeColor=#E6E6E6;" vertex="1" parent="1">
                    <mxGeometry x="280" y="140" width="110" height="40" as="geometry"/>
                </mxCell>
                <mxCell id="19" style="edgeStyle=none;html=1;exitX=0.5;exitY=1;exitDx=0;exitDy=0;fontColor=#E6E6E6;strokeColor=#E6E6E6;" edge="1" parent="1" source="16" target="18">
                    <mxGeometry relative="1" as="geometry"/>
                </mxCell>
                <mxCell id="16" value="서버 접속" style="rounded=1;whiteSpace=wrap;html=1;fontColor=#E6E6E6;fillColor=none;strokeColor=#E6E6E6;" vertex="1" parent="1">
                    <mxGeometry x="280" y="220" width="110" height="40" as="geometry"/>
                </mxCell>
                <mxCell id="23" style="edgeStyle=none;html=1;exitX=0.5;exitY=1;exitDx=0;exitDy=0;entryX=0.5;entryY=0;entryDx=0;entryDy=0;fontColor=#E6E6E6;fillColor=#1ba1e2;strokeColor=#006EAF;" edge="1" parent="1" source="18" target="22">
                    <mxGeometry relative="1" as="geometry"/>
                </mxCell>
                <mxCell id="30" style="edgeStyle=none;html=1;exitX=1;exitY=0.5;exitDx=0;exitDy=0;entryX=1;entryY=0.5;entryDx=0;entryDy=0;fontColor=#E6E6E6;fillColor=#d80073;strokeColor=#A50040;" edge="1" parent="1" source="18" target="16">
                    <mxGeometry relative="1" as="geometry">
                        <Array as="points">
                            <mxPoint x="470" y="330"/>
                            <mxPoint x="470" y="240"/>
                        </Array>
                    </mxGeometry>
                </mxCell>
                <mxCell id="18" value="로그인&lt;br&gt;되었는가?" style="rhombus;whiteSpace=wrap;html=1;fontColor=#E6E6E6;fillColor=none;strokeColor=#E6E6E6;" vertex="1" parent="1">
                    <mxGeometry x="280" y="300" width="110" height="60" as="geometry"/>
                </mxCell>
                <mxCell id="21" value="NO" style="text;html=1;strokeColor=#A50040;fillColor=none;align=center;verticalAlign=middle;whiteSpace=wrap;rounded=0;fontColor=#ffffff;" vertex="1" parent="1">
                    <mxGeometry x="390" y="310" width="50" height="20" as="geometry"/>
                </mxCell>
                <mxCell id="27" style="edgeStyle=none;html=1;entryX=0;entryY=0.5;entryDx=0;entryDy=0;fontColor=#E6E6E6;strokeColor=#E6E6E6;" edge="1" parent="1" source="22" target="26">
                    <mxGeometry relative="1" as="geometry"/>
                </mxCell>
                <mxCell id="22" value="로비 입장" style="rounded=1;whiteSpace=wrap;html=1;fontColor=#E6E6E6;fillColor=none;strokeColor=#E6E6E6;" vertex="1" parent="1">
                    <mxGeometry x="280" y="400" width="110" height="40" as="geometry"/>
                </mxCell>
                <mxCell id="24" value="YES" style="text;html=1;strokeColor=#006EAF;fillColor=none;align=center;verticalAlign=middle;whiteSpace=wrap;rounded=0;fontColor=#ffffff;" vertex="1" parent="1">
                    <mxGeometry x="335" y="360" width="50" height="20" as="geometry"/>
                </mxCell>
                <mxCell id="32" value="" style="edgeStyle=none;html=1;fontColor=#E6E6E6;strokeColor=#E6E6E6;" edge="1" parent="1" source="26" target="28">
                    <mxGeometry relative="1" as="geometry"/>
                </mxCell>
                <mxCell id="26" value="입장 버튼" style="shape=parallelogram;perimeter=parallelogramPerimeter;whiteSpace=wrap;html=1;fixedSize=1;fontColor=#E6E6E6;fillColor=none;strokeColor=#E6E6E6;" vertex="1" parent="1">
                    <mxGeometry x="440" y="400" width="110" height="40" as="geometry"/>
                </mxCell>
                <mxCell id="35" style="edgeStyle=none;html=1;entryX=0.5;entryY=1;entryDx=0;entryDy=0;fontColor=#E6E6E6;fillColor=#d80073;strokeColor=#A50040;" edge="1" parent="1" source="28" target="22">
                    <mxGeometry relative="1" as="geometry">
                        <Array as="points">
                            <mxPoint x="660" y="490"/>
                            <mxPoint x="335" y="490"/>
                        </Array>
                    </mxGeometry>
                </mxCell>
                <mxCell id="39" style="edgeStyle=none;html=1;exitX=1;exitY=0.5;exitDx=0;exitDy=0;entryX=0;entryY=0.5;entryDx=0;entryDy=0;fontColor=#E6E6E6;fillColor=#1ba1e2;strokeColor=#006EAF;" edge="1" parent="1" source="28" target="33">
                    <mxGeometry relative="1" as="geometry"/>
                </mxCell>
                <mxCell id="28" value="닉네임이 &lt;br&gt;입력 되었는가" style="rhombus;whiteSpace=wrap;html=1;fontColor=#E6E6E6;fillColor=none;strokeColor=#E6E6E6;" vertex="1" parent="1">
                    <mxGeometry x="600" y="390" width="120" height="60" as="geometry"/>
                </mxCell>
                <mxCell id="34" style="edgeStyle=none;html=1;entryX=0.5;entryY=1;entryDx=0;entryDy=0;fontColor=#E6E6E6;fillColor=#d80073;strokeColor=#A50040;" edge="1" parent="1" source="33" target="22">
                    <mxGeometry relative="1" as="geometry">
                        <Array as="points">
                            <mxPoint x="850" y="490"/>
                            <mxPoint x="335" y="490"/>
                        </Array>
                    </mxGeometry>
                </mxCell>
                <mxCell id="42" value="" style="edgeStyle=none;html=1;fontColor=#E6E6E6;fillColor=#1ba1e2;strokeColor=#006EAF;" edge="1" parent="1" source="33" target="41">
                    <mxGeometry relative="1" as="geometry"/>
                </mxCell>
                <mxCell id="33" value="닉네임이 &lt;br&gt;7글자 이하인가" style="rhombus;whiteSpace=wrap;html=1;fontColor=#E6E6E6;fillColor=none;strokeColor=#E6E6E6;" vertex="1" parent="1">
                    <mxGeometry x="790" y="390" width="120" height="60" as="geometry"/>
                </mxCell>
                <mxCell id="36" value="NO" style="text;html=1;strokeColor=#A50040;fillColor=none;align=center;verticalAlign=middle;whiteSpace=wrap;rounded=0;fontColor=#ffffff;" vertex="1" parent="1">
                    <mxGeometry x="660" y="450" width="50" height="20" as="geometry"/>
                </mxCell>
                <mxCell id="37" value="NO" style="text;html=1;strokeColor=#A50040;fillColor=none;align=center;verticalAlign=middle;whiteSpace=wrap;rounded=0;fontColor=#ffffff;" vertex="1" parent="1">
                    <mxGeometry x="850" y="450" width="50" height="20" as="geometry"/>
                </mxCell>
                <mxCell id="40" value="YES" style="text;html=1;strokeColor=#006EAF;fillColor=none;align=center;verticalAlign=middle;whiteSpace=wrap;rounded=0;fontColor=#ffffff;" vertex="1" parent="1">
                    <mxGeometry x="720" y="400" width="50" height="20" as="geometry"/>
                </mxCell>
                <mxCell id="41" value="게임(룸) 입장" style="rounded=1;whiteSpace=wrap;html=1;fontColor=#E6E6E6;fillColor=none;strokeColor=#E6E6E6;" vertex="1" parent="1">
                    <mxGeometry x="795" y="310" width="110" height="40" as="geometry"/>
                </mxCell>
                <mxCell id="43" value="YES" style="text;html=1;strokeColor=#006EAF;fillColor=none;align=center;verticalAlign=middle;whiteSpace=wrap;rounded=0;fontColor=#ffffff;" vertex="1" parent="1">
                    <mxGeometry x="850" y="370" width="50" height="20" as="geometry"/>
                </mxCell>
            </root>
        </mxGraphModel>
    </diagram>
</mxfile>